<svg width="15" height="18" viewBox="0 0 15 18" fill="none" xmlns="http://www.w3.org/2000/svg">
<path d="M7.17787 17.142L6.67995 16.7152C5.99354 16.1404 0 10.9642 0 7.17787C0 3.21365 3.21365 0 7.17787 0C11.1421 0 14.3557 3.21365 14.3557 7.17787C14.3557 10.9642 8.3622 16.1404 7.67863 16.718L7.17787 17.142ZM7.17787 1.55206C4.0723 1.55558 1.55561 4.07227 1.5521 7.17784C1.5521 9.55647 5.23955 13.3563 7.17787 15.0955C9.11621 13.3556 12.8036 9.55359 12.8036 7.17784C12.8001 4.07227 10.2835 1.55561 7.17787 1.55206Z" fill="white"/>
<path d="M7.17786 10.023C5.60647 10.023 4.33261 8.74915 4.33261 7.17776C4.33261 5.60638 5.60647 4.33252 7.17786 4.33252C8.74924 4.33252 10.0231 5.60638 10.0231 7.17776C10.0231 8.74915 8.74927 10.023 7.17786 10.023ZM7.17786 5.75511C6.39216 5.75511 5.75523 6.39204 5.75523 7.17773C5.75523 7.96342 6.39216 8.60035 7.17786 8.60035C7.96355 8.60035 8.60048 7.96342 8.60048 7.17773C8.60048 6.39204 7.96358 5.75511 7.17786 5.75511Z" fill="white"/>
</svg>
