<svg width="53" height="56" viewBox="0 0 53 56" fill="none" xmlns="http://www.w3.org/2000/svg">
<g filter="url(#filter0_d_1_332)">
<g filter="url(#filter1_dd_1_332)">
<g filter="url(#filter2_d_1_332)">
<rect width="43" height="43" rx="21.5" transform="matrix(-1 0 0 1 48 4)" fill="white" fill-opacity="0.02" shape-rendering="crispEdges"/>
<rect width="43" height="43" rx="21.5" transform="matrix(-1 0 0 1 48 4)" stroke="white" stroke-opacity="0.5" shape-rendering="crispEdges"/>
</g>
</g>
<path d="M27.0739 20.0938L26.3864 19.4062C26.0739 19.125 25.6052 19.125 25.3239 19.4062L19.2302 25.4688C18.9489 25.7812 18.9489 26.25 19.2302 26.5312L25.3239 32.625C25.6052 32.9062 26.0739 32.9062 26.3864 32.625L27.0739 31.9375C27.3552 31.625 27.3552 31.1562 27.0739 30.8438L23.2927 27.25H32.2614C32.6989 27.25 33.0114 26.9375 33.0114 26.5V25.5C33.0114 25.0938 32.6989 24.75 32.2614 24.75H23.2927L27.0739 21.1875C27.3552 20.875 27.3864 20.4062 27.0739 20.0938Z" fill="white" fill-opacity="0.8"/>
</g>
<defs>
<filter id="filter0_d_1_332" x="0.5" y="3.5" width="52" height="52.6875" filterUnits="userSpaceOnUse" color-interpolation-filters="sRGB">
<feFlood flood-opacity="0" result="BackgroundImageFix"/>
<feColorMatrix in="SourceAlpha" type="matrix" values="0 0 0 0 0 0 0 0 0 0 0 0 0 0 0 0 0 0 127 0" result="hardAlpha"/>
<feOffset dy="4"/>
<feGaussianBlur stdDeviation="2"/>
<feComposite in2="hardAlpha" operator="out"/>
<feColorMatrix type="matrix" values="0 0 0 0 0 0 0 0 0 0 0 0 0 0 0 0 0 0 0.25 0"/>
<feBlend mode="normal" in2="BackgroundImageFix" result="effect1_dropShadow_1_332"/>
<feBlend mode="normal" in="SourceGraphic" in2="effect1_dropShadow_1_332" result="shape"/>
</filter>
<filter id="filter1_dd_1_332" x="0.5" y="0.5" width="52" height="52.5" filterUnits="userSpaceOnUse" color-interpolation-filters="sRGB">
<feFlood flood-opacity="0" result="BackgroundImageFix"/>
<feColorMatrix in="SourceAlpha" type="matrix" values="0 0 0 0 0 0 0 0 0 0 0 0 0 0 0 0 0 0 127 0" result="hardAlpha"/>
<feMorphology radius="1" operator="dilate" in="SourceAlpha" result="effect1_dropShadow_1_332"/>
<feOffset dy="1"/>
<feGaussianBlur stdDeviation="1.5"/>
<feColorMatrix type="matrix" values="0 0 0 0 0 0 0 0 0 0 0 0 0 0 0 0 0 0 0.15 0"/>
<feBlend mode="normal" in2="BackgroundImageFix" result="effect1_dropShadow_1_332"/>
<feColorMatrix in="SourceAlpha" type="matrix" values="0 0 0 0 0 0 0 0 0 0 0 0 0 0 0 0 0 0 127 0" result="hardAlpha"/>
<feOffset dy="1"/>
<feGaussianBlur stdDeviation="1"/>
<feColorMatrix type="matrix" values="0 0 0 0 0 0 0 0 0 0 0 0 0 0 0 0 0 0 0.3 0"/>
<feBlend mode="normal" in2="effect1_dropShadow_1_332" result="effect2_dropShadow_1_332"/>
<feBlend mode="normal" in="SourceGraphic" in2="effect2_dropShadow_1_332" result="shape"/>
</filter>
<filter id="filter2_d_1_332" x="0.5" y="3.5" width="52" height="52" filterUnits="userSpaceOnUse" color-interpolation-filters="sRGB">
<feFlood flood-opacity="0" result="BackgroundImageFix"/>
<feColorMatrix in="SourceAlpha" type="matrix" values="0 0 0 0 0 0 0 0 0 0 0 0 0 0 0 0 0 0 127 0" result="hardAlpha"/>
<feOffset dy="4"/>
<feGaussianBlur stdDeviation="2"/>
<feComposite in2="hardAlpha" operator="out"/>
<feColorMatrix type="matrix" values="0 0 0 0 0 0 0 0 0 0 0 0 0 0 0 0 0 0 0.25 0"/>
<feBlend mode="normal" in2="BackgroundImageFix" result="effect1_dropShadow_1_332"/>
<feBlend mode="normal" in="SourceGraphic" in2="effect1_dropShadow_1_332" result="shape"/>
</filter>
</defs>
</svg>
