<svg width="253" height="59" viewBox="0 0 253 59" fill="none" xmlns="http://www.w3.org/2000/svg">
<g clip-path="url(#clip0_1_457)">
<path d="M220.728 34.0686V27.6374C220.728 27.4459 220.835 27.2703 221.001 27.1798L223.975 25.562L226.952 27.1798C227.12 27.2703 227.227 27.4459 227.227 27.6374V34.0686C227.227 34.2602 227.123 34.4358 226.952 34.5289L223.975 36.1413L221.001 34.5289C220.832 34.4358 220.728 34.2602 220.728 34.0686ZM203.5 28.8747V24.8489L203.516 24.8383V15.1024C203.516 13.0084 204.661 11.0793 206.511 10.0656L207.065 9.75956L223.975 0.5L240.89 9.75956L241.444 10.0656C243.294 11.0793 244.437 13.0084 244.437 15.1024V33.4726C244.437 35.5693 243.292 37.4983 241.444 38.5095L240.89 38.8154L223.975 48.0777L207.065 38.8154L206.511 38.5095C204.661 37.501 203.516 35.5693 203.516 33.4726V28.8667L203.5 28.8774V28.8747ZM207.065 22.8932L223.975 13.631L240.89 22.8932V15.1237C240.89 14.2989 240.438 13.5379 239.71 13.1388L223.975 4.52046L208.243 13.1388C207.518 13.5379 207.065 14.2989 207.065 15.1237V22.8932ZM207.065 33.4513C207.065 34.2761 207.518 35.0371 208.243 35.4362L223.975 44.0545L239.71 35.4362C240.438 35.0371 240.89 34.2761 240.89 33.4513V26.9217L223.975 17.6595L207.065 26.9217V33.4513ZM251.448 32.6983L248.95 31.3306V38.9911C248.95 39.8159 248.498 40.5795 247.77 40.976L244.44 42.796L240.89 44.741L226.695 52.5132L223.975 54.0033L207.062 44.741L203.513 42.796L200.183 40.976C199.457 40.5769 199.005 39.8132 199.005 38.9911V31.3306L196.507 32.7009C195.86 33.0575 195.458 33.736 195.458 34.4704V39.0123C195.458 41.1117 196.604 43.0381 198.448 44.0492L199.005 44.3526L203.513 46.8244L207.062 48.7695L223.975 58.029L226.695 56.539L240.89 48.7695L244.44 46.8244L248.95 44.3526L249.505 44.0492C251.352 43.0381 252.5 41.1117 252.5 39.0123V34.4704C252.5 33.7333 252.096 33.0575 251.448 32.7009V32.6983Z" fill="url(#paint0_linear_1_457)"/>
<path d="M79.2274 53.2902H77.5838C77.3268 53.2902 77.1073 53.2529 76.9307 53.1811C76.754 53.1092 76.6094 53.0081 76.5024 52.8804C76.3926 52.7527 76.3176 52.601 76.2721 52.4307C76.2266 52.2578 76.2052 52.0715 76.2052 51.872V45.643H75.2389V52.3749C75.2389 52.6569 75.188 52.8777 75.089 53.0427C74.9872 53.2077 74.7918 53.2902 74.5027 53.2902H72.6664V51.5207C72.6664 51.1828 72.6128 50.8715 72.5084 50.5868C72.404 50.3021 72.2568 50.06 72.0667 49.8577C71.8767 49.6582 71.6438 49.5012 71.3707 49.3894C71.095 49.2777 70.7899 49.2218 70.4499 49.2218C70.1099 49.2218 69.7646 49.2937 69.4621 49.4373C69.1596 49.581 68.9 49.7779 68.6805 50.0254C68.4636 50.2728 68.2923 50.5628 68.1665 50.8954C68.0407 51.228 67.9791 51.5766 67.9791 51.9465C67.9791 52.2259 68.0246 52.5052 68.1183 52.782C68.212 53.0587 68.3592 53.3035 68.5654 53.519C68.7715 53.7345 69.0418 53.9101 69.3765 54.0485C69.7111 54.1842 70.118 54.2534 70.5945 54.2534H74.5723C74.7329 54.2534 74.8855 54.2427 75.0301 54.2188C75.1746 54.1948 75.3111 54.1523 75.4369 54.0884C75.5628 54.0245 75.6805 53.9314 75.7849 53.809C75.892 53.6866 75.9884 53.527 76.0794 53.3301C76.1758 53.6627 76.3551 53.8995 76.6121 54.0405C76.8691 54.1815 77.1796 54.2534 77.541 54.2534H80.1858V45.6457H79.2194V53.2928L79.2274 53.2902ZM71.7027 53.2902H70.5543C70.3375 53.2902 70.1313 53.2609 69.9386 53.205C69.7459 53.1491 69.5719 53.0587 69.4193 52.9336C69.2667 52.8086 69.1462 52.6463 69.0579 52.4467C68.9696 52.2471 68.9241 52.005 68.9241 51.723C68.9241 51.4808 68.9642 51.2653 69.0445 51.0711C69.1248 50.8795 69.2346 50.7119 69.3711 50.5708C69.5076 50.4298 69.6602 50.3234 69.8289 50.2515C69.9975 50.1797 70.1742 50.1424 70.3589 50.1424C70.7925 50.1424 71.1272 50.2968 71.3547 50.6054C71.5849 50.9141 71.7 51.3478 71.7 51.9012V53.2875L71.7027 53.2902Z" fill="white"/>
<path d="M83.042 45.643H82.1132V54.2507H83.042V45.643Z" fill="white"/>
<path d="M92.5236 47.9473C92.6762 47.9473 92.8073 47.8941 92.9171 47.785C93.0268 47.6759 93.0804 47.5482 93.0804 47.3938C93.0804 47.2395 93.0268 47.1118 92.9171 47.0027C92.8073 46.8936 92.6762 46.8404 92.5236 46.8404C92.371 46.8404 92.2398 46.8936 92.1301 47.0027C92.0203 47.1118 91.9668 47.2422 91.9668 47.3938C91.9668 47.5455 92.0203 47.6759 92.1301 47.785C92.2398 47.8941 92.3683 47.9473 92.5236 47.9473Z" fill="white"/>
<path d="M90.9174 47.9473C91.07 47.9473 91.2011 47.8941 91.3109 47.785C91.4206 47.6759 91.4742 47.5482 91.4742 47.3938C91.4742 47.2395 91.4206 47.1118 91.3109 47.0027C91.2011 46.8936 91.07 46.8404 90.9174 46.8404C90.7648 46.8404 90.6336 46.8936 90.5239 47.0027C90.4141 47.1118 90.3606 47.2422 90.3606 47.3938C90.3606 47.5455 90.4141 47.6759 90.5239 47.785C90.6336 47.8941 90.7621 47.9473 90.9174 47.9473Z" fill="white"/>
<path d="M100.795 55.6317C100.643 55.6317 100.511 55.6849 100.402 55.794C100.292 55.9031 100.238 56.0308 100.238 56.1851C100.238 56.3394 100.292 56.4672 100.402 56.5762C100.511 56.6853 100.64 56.7386 100.795 56.7386C100.95 56.7386 101.079 56.6853 101.189 56.5762C101.298 56.4672 101.352 56.3368 101.352 56.1851C101.352 56.0334 101.298 55.9031 101.189 55.794C101.079 55.6849 100.948 55.6317 100.795 55.6317Z" fill="white"/>
<path d="M99.189 55.6317C99.0364 55.6317 98.9052 55.6849 98.7955 55.794C98.6857 55.9031 98.6322 56.0308 98.6322 56.1851C98.6322 56.3394 98.6857 56.4672 98.7955 56.5762C98.9052 56.6853 99.0337 56.7386 99.189 56.7386C99.3443 56.7386 99.4728 56.6853 99.5825 56.5762C99.6923 56.4672 99.7458 56.3368 99.7458 56.1851C99.7458 56.0334 99.6923 55.9031 99.5825 55.794C99.4728 55.6849 99.3416 55.6317 99.189 55.6317Z" fill="white"/>
<path d="M104.165 55.6317C104.013 55.6317 103.882 55.6849 103.772 55.794C103.662 55.9031 103.609 56.0308 103.609 56.1851C103.609 56.3394 103.662 56.4672 103.772 56.5762C103.882 56.6853 104.01 56.7386 104.165 56.7386C104.321 56.7386 104.449 56.6853 104.559 56.5762C104.669 56.4672 104.722 56.3368 104.722 56.1851C104.722 56.0334 104.669 55.9031 104.559 55.794C104.449 55.6849 104.318 55.6317 104.165 55.6317Z" fill="white"/>
<path d="M107.667 53.2902H106.023C105.766 53.2902 105.547 53.2529 105.37 53.1811C105.193 53.1092 105.049 53.0081 104.942 52.8804C104.832 52.7527 104.757 52.601 104.712 52.4281C104.666 52.2551 104.645 52.0689 104.645 51.8666V49.6874H103.678V52.3722C103.678 52.6542 103.627 52.8751 103.528 53.0401C103.427 53.205 103.231 53.2875 102.942 53.2875H101.818C101.561 53.2875 101.341 53.2503 101.165 53.1784C100.988 53.1066 100.843 53.0055 100.736 52.8777C100.627 52.75 100.552 52.5984 100.506 52.4254C100.461 52.2525 100.439 52.0662 100.439 51.864V49.6848H99.4728V52.3695C99.4728 52.6516 99.422 52.8724 99.3229 53.0374C99.2212 53.2024 99.0258 53.2848 98.7367 53.2848H97.5883C97.3313 53.2848 97.1145 53.2476 96.9351 53.1758C96.7585 53.1039 96.6166 53.0028 96.5122 52.8751C96.4078 52.7474 96.3328 52.5957 96.29 52.4227C96.2445 52.2498 96.2231 52.0635 96.2231 51.8613V49.6821H95.2567V52.3669C95.2567 52.6489 95.2112 52.8698 95.1175 53.0347C95.0238 53.1997 94.8311 53.2822 94.534 53.2822H88.7947C88.5618 53.2822 88.3878 53.213 88.2754 53.072C88.163 52.931 88.1067 52.7021 88.1067 52.3828V50.7385H87.1404V52.6356C87.1404 52.8511 87.1672 53.0587 87.218 53.2529C87.2716 53.4471 87.3599 53.6174 87.483 53.7638C87.6088 53.9101 87.7694 54.0272 87.9675 54.1124C88.1656 54.2002 88.4092 54.2427 88.6983 54.2427H94.5875C94.9248 54.2427 95.2246 54.1842 95.4816 54.0645C95.7386 53.9447 95.9447 53.6973 96.0973 53.3168C96.2097 53.6574 96.3944 53.8968 96.6487 54.0352C96.903 54.1735 97.2028 54.2427 97.5481 54.2427H98.8036C98.9642 54.2427 99.1168 54.2321 99.2613 54.2081C99.4059 54.1842 99.5424 54.1416 99.6682 54.0778C99.794 54.0139 99.9118 53.9208 100.016 53.7984C100.123 53.676 100.22 53.5163 100.311 53.3194C100.407 53.652 100.586 53.8888 100.843 54.0299C101.1 54.1709 101.411 54.2427 101.772 54.2427H103.004C103.164 54.2427 103.317 54.2321 103.461 54.2081C103.606 54.1842 103.742 54.1416 103.868 54.0778C103.994 54.0139 104.112 53.9208 104.216 53.7984C104.323 53.676 104.42 53.5163 104.511 53.3194C104.607 53.652 104.786 53.8888 105.043 54.0299C105.3 54.1709 105.611 54.2427 105.972 54.2427H108.617V45.6351H107.651V53.2822L107.667 53.2902Z" fill="white"/>
<path d="M130.011 53.2902H128.091C127.634 53.2902 127.286 53.1784 127.053 52.9522C126.82 52.7287 126.699 52.3137 126.691 51.7123C126.691 51.2706 126.63 50.9008 126.509 50.5974C126.389 50.2968 126.223 50.0546 126.014 49.8684C125.805 49.6848 125.554 49.5517 125.259 49.4719C124.965 49.3921 124.646 49.3522 124.298 49.3522H123.669L125.733 46.1832C125.589 46.0874 125.463 46.0022 125.358 45.9251C125.254 45.8479 125.12 45.7601 124.959 45.6537C124.55 46.279 124.159 46.8856 123.795 47.479C123.428 48.0723 123.048 48.679 122.655 49.3043V50.2648H124.007C124.4 50.2648 124.713 50.2994 124.943 50.366C125.174 50.4351 125.348 50.5495 125.468 50.7092C125.589 50.8688 125.666 51.0897 125.698 51.3664C125.73 51.6431 125.746 51.9864 125.746 52.3961C125.746 52.6782 125.701 52.8964 125.607 53.0534C125.514 53.2103 125.31 53.2875 124.997 53.2875H122.026C121.993 53.2795 121.959 53.2742 121.919 53.2742H121.629C121.308 53.2742 121.057 53.2236 120.875 53.1172C120.693 53.0134 120.556 52.8937 120.465 52.758C120.371 52.6223 120.315 52.4813 120.296 52.3376C120.275 52.1939 120.267 52.0822 120.267 52.0023V51.6538C120.267 51.2866 120.211 50.9433 120.098 50.6267C119.986 50.3101 119.823 50.0387 119.611 49.8098C119.397 49.581 119.143 49.4027 118.84 49.275C118.538 49.1473 118.2 49.0834 117.823 49.0834C117.445 49.0834 117.092 49.1606 116.787 49.3123C116.482 49.4639 116.222 49.6635 116.011 49.9136C115.799 50.1611 115.636 50.4458 115.529 50.7651C115.419 51.0844 115.366 51.4143 115.366 51.7496V53.2503H114.653C114.089 53.2503 113.628 53.4205 113.269 53.7611C112.911 54.1017 112.731 54.5993 112.731 55.2565V58.4973H113.698V55.6157C113.698 55.0942 113.783 54.7376 113.957 54.5407C114.129 54.3438 114.402 54.248 114.771 54.248H117.563C117.828 54.248 118.077 54.2347 118.31 54.2108C118.543 54.1869 118.76 54.139 118.961 54.0671C119.161 53.9953 119.349 53.8915 119.52 53.7558C119.691 53.6201 119.852 53.4365 119.997 53.2024C120.061 53.4179 120.149 53.5935 120.267 53.7319C120.382 53.8676 120.513 53.974 120.658 54.0511C120.802 54.1283 120.958 54.1789 121.123 54.2081C121.289 54.2374 121.453 54.2507 121.613 54.2507H125.104C125.265 54.2507 125.417 54.2401 125.562 54.2161C125.706 54.1922 125.84 54.1496 125.961 54.0857C126.081 54.0219 126.194 53.9288 126.298 53.8064C126.402 53.684 126.496 53.5243 126.576 53.3274C126.689 53.684 126.873 53.9261 127.133 54.0565C127.39 54.1869 127.701 54.2534 128.062 54.2534H130.985V49.6928H130.019V53.2928L130.011 53.2902ZM119.226 52.468C119.177 52.6729 119.097 52.8325 118.982 52.9469C118.87 53.064 118.714 53.1438 118.516 53.1864C118.318 53.2316 118.075 53.2529 117.783 53.2529H116.327V51.8853C116.327 51.542 116.367 51.252 116.447 51.0152C116.527 50.7784 116.637 50.5868 116.774 50.4378C116.91 50.2888 117.073 50.1824 117.258 50.1185C117.443 50.0546 117.641 50.0227 117.852 50.0227C118.313 50.0227 118.669 50.1691 118.92 50.4617C119.172 50.7544 119.295 51.1642 119.295 51.691C119.295 52.0023 119.271 52.2604 119.223 52.4653L119.226 52.468Z" fill="white"/>
<path d="M130.41 55.6317C130.257 55.6317 130.126 55.6849 130.016 55.794C129.906 55.9031 129.853 56.0308 129.853 56.1851C129.853 56.3394 129.906 56.4672 130.016 56.5762C130.126 56.6853 130.254 56.7386 130.41 56.7386C130.565 56.7386 130.693 56.6853 130.803 56.5762C130.913 56.4672 130.966 56.3368 130.966 56.1851C130.966 56.0334 130.913 55.9031 130.803 55.794C130.693 55.6849 130.562 55.6317 130.41 55.6317Z" fill="white"/>
<path d="M147.403 47.9473C147.555 47.9473 147.686 47.8941 147.796 47.785C147.906 47.6759 147.959 47.5482 147.959 47.3938C147.959 47.2395 147.906 47.1118 147.796 47.0027C147.686 46.8936 147.555 46.8404 147.403 46.8404C147.25 46.8404 147.119 46.8936 147.009 47.0027C146.899 47.1118 146.846 47.2422 146.846 47.3938C146.846 47.5455 146.899 47.6759 147.009 47.785C147.119 47.8941 147.247 47.9473 147.403 47.9473Z" fill="white"/>
<path d="M145.796 47.9473C145.949 47.9473 146.08 47.8941 146.19 47.785C146.3 47.6759 146.353 47.5482 146.353 47.3938C146.353 47.2395 146.3 47.1118 146.19 47.0027C146.08 46.8936 145.949 46.8404 145.796 46.8404C145.644 46.8404 145.513 46.8936 145.403 47.0027C145.293 47.1118 145.24 47.2422 145.24 47.3938C145.24 47.5455 145.293 47.6759 145.403 47.785C145.513 47.8941 145.641 47.9473 145.796 47.9473Z" fill="white"/>
<path d="M148.27 49.8391C148.085 49.6422 147.86 49.4906 147.601 49.3841C147.338 49.275 147.047 49.2218 146.725 49.2218C146.34 49.2218 145.986 49.2937 145.668 49.44C145.349 49.5837 145.076 49.7726 144.846 50.0067C144.616 50.2382 144.439 50.5096 144.313 50.813C144.188 51.119 144.126 51.4276 144.126 51.7389C144.126 52.0768 144.185 52.3802 144.303 52.6489C144.42 52.9177 144.57 53.1332 144.75 53.2928H142.64C142.383 53.2928 142.164 53.2556 141.987 53.1837C141.811 53.1119 141.666 53.0108 141.559 52.8831C141.449 52.7553 141.374 52.6037 141.329 52.4334C141.283 52.2604 141.262 52.0742 141.262 51.8746V45.6457H140.295V52.3775C140.295 52.6596 140.245 52.8804 140.145 53.0454C140.044 53.2103 139.848 53.2928 139.559 53.2928H137.362V51.5234C137.362 51.1855 137.311 50.8742 137.212 50.5895C137.11 50.3048 136.965 50.0626 136.778 49.8604C136.588 49.6608 136.358 49.5039 136.085 49.3921C135.812 49.2803 135.501 49.2245 135.156 49.2245C134.81 49.2245 134.473 49.2963 134.171 49.44C133.868 49.5837 133.609 49.7806 133.392 50.028C133.175 50.2755 133.006 50.5655 132.886 50.8981C132.765 51.2307 132.704 51.5793 132.704 51.9491C132.704 52.2285 132.749 52.5079 132.843 52.7846C132.937 53.0613 133.084 53.3061 133.29 53.5217C133.496 53.7372 133.764 53.9128 134.098 54.0512C134.433 54.1869 134.837 54.256 135.311 54.256H136.435C136.427 54.6392 136.366 54.9532 136.253 55.1926C136.141 55.4321 135.991 55.621 135.806 55.7567C135.622 55.8924 135.405 55.9856 135.161 56.0334C134.915 56.0813 134.655 56.1053 134.382 56.1053C134.222 56.1053 134.053 56.1 133.876 56.0867C133.7 56.076 133.518 56.0601 133.333 56.0441C133.317 56.1958 133.303 56.3448 133.29 56.4884C133.279 56.6321 133.263 56.7891 133.247 56.9567C133.432 56.9887 133.614 57.01 133.791 57.0179C133.967 57.0259 134.141 57.0312 134.31 57.0312C134.752 57.0312 135.158 56.9807 135.531 56.8822C135.9 56.7811 136.221 56.6188 136.492 56.3953C136.762 56.1718 136.973 55.8818 137.126 55.5306C137.279 55.1793 137.359 54.7536 137.367 54.2587H139.637C139.798 54.2587 139.95 54.2481 140.095 54.2241C140.239 54.2002 140.376 54.1576 140.502 54.0937C140.627 54.0299 140.745 53.9367 140.85 53.8143C140.957 53.6919 141.053 53.5323 141.144 53.3354C141.24 53.668 141.42 53.9048 141.677 54.0458C141.934 54.1869 142.244 54.2587 142.606 54.2587H148.837V51.4622C148.837 51.1269 148.789 50.821 148.693 50.5495C148.596 50.2781 148.455 50.044 148.27 49.8471V49.8391ZM136.425 53.2902H135.266C135.049 53.2902 134.843 53.2609 134.65 53.205C134.457 53.1491 134.283 53.0587 134.131 52.9336C133.978 52.8086 133.857 52.6463 133.769 52.4467C133.681 52.2471 133.635 52.005 133.635 51.723C133.635 51.4808 133.675 51.2653 133.756 51.0711C133.836 50.8795 133.943 50.7119 134.077 50.5708C134.211 50.4298 134.366 50.3234 134.543 50.2515C134.719 50.1797 134.901 50.1424 135.086 50.1424C135.496 50.1424 135.822 50.2968 136.063 50.6054C136.304 50.9141 136.425 51.3478 136.425 51.9012V53.2875V53.2902ZM147.874 53.2902H146.514C146.233 53.2503 145.997 53.1731 145.804 53.0613C145.62 52.9576 145.456 52.8006 145.312 52.5904C145.167 52.3802 145.095 52.0928 145.095 51.723C145.095 51.4808 145.138 51.2653 145.221 51.0711C145.304 50.8795 145.416 50.7119 145.55 50.5708C145.687 50.4298 145.845 50.3234 146.024 50.2515C146.203 50.1797 146.391 50.1424 146.583 50.1424C146.808 50.1424 147.001 50.1797 147.167 50.2569C147.33 50.334 147.467 50.4325 147.569 50.5522C147.673 50.6719 147.748 50.8076 147.796 50.9567C147.844 51.1057 147.868 51.252 147.868 51.3957V53.2875L147.874 53.2902Z" fill="white"/>
<path d="M176.688 47.9473C176.84 47.9473 176.972 47.8941 177.081 47.785C177.191 47.6759 177.245 47.5482 177.245 47.3938C177.245 47.2395 177.191 47.1118 177.081 47.0027C176.972 46.8936 176.84 46.8404 176.688 46.8404C176.535 46.8404 176.404 46.8936 176.294 47.0027C176.185 47.1118 176.131 47.2422 176.131 47.3938C176.131 47.5455 176.185 47.6759 176.294 47.785C176.404 47.8941 176.533 47.9473 176.688 47.9473Z" fill="white"/>
<path d="M176.23 53.2902H174.442C174.201 53.2902 174 53.2369 173.845 53.1332C173.687 53.0294 173.561 52.8884 173.465 52.7128C173.368 52.5372 173.293 52.327 173.243 52.0875C173.189 51.8454 173.152 51.5926 173.127 51.3292C173.111 51.087 173.066 50.8422 172.994 50.5895C172.921 50.3367 172.806 50.1079 172.648 49.903C172.49 49.6981 172.287 49.5305 172.038 49.3974C171.789 49.2644 171.479 49.1979 171.109 49.1979C170.957 49.1979 170.796 49.2085 170.627 49.2351C170.459 49.2591 170.295 49.2883 170.137 49.3203C169.979 49.3522 169.832 49.3894 169.69 49.4294C169.548 49.4693 169.431 49.5065 169.334 49.5384L169.575 50.475C169.784 50.3872 170.009 50.3181 170.244 50.2648C170.483 50.2116 170.678 50.1877 170.831 50.1877C171.2 50.1877 171.497 50.2914 171.719 50.5017C171.942 50.7119 172.083 51.0711 172.148 51.5873C172.212 52.0609 172.284 52.4254 172.365 52.6782C172.445 52.931 172.541 53.1385 172.654 53.2981H168.933C168.901 53.2902 168.866 53.2848 168.826 53.2848H168.537C168.223 53.2848 167.974 53.2369 167.795 53.1412C167.613 53.0454 167.477 52.931 167.386 52.7979C167.292 52.6649 167.233 52.5265 167.204 52.3775C167.174 52.2285 167.161 52.1088 167.161 52.0103C167.161 51.1376 166.96 50.4617 166.556 49.9828C166.154 49.5039 165.587 49.2617 164.853 49.2617C164.508 49.2617 164.187 49.3256 163.892 49.4533C163.598 49.581 163.346 49.762 163.137 49.9934C162.929 50.2249 162.763 50.499 162.642 50.8156C162.522 51.1323 162.46 51.4728 162.46 51.8427C162.46 52.138 162.431 52.3802 162.369 52.5691C162.307 52.758 162.23 52.9043 162.133 53.0081C162.037 53.1119 161.927 53.1837 161.807 53.2236C161.686 53.2636 161.561 53.2848 161.432 53.2848H161.119C161.087 53.2848 161.063 53.2902 161.039 53.2981H161.036C160.594 53.2981 160.249 53.1917 160.003 52.9789C159.756 52.766 159.633 52.3988 159.633 51.8773V45.6484H158.704V53.6893C158.704 54.0911 158.635 54.4343 158.498 54.7243C158.362 55.0117 158.18 55.2485 157.955 55.4321C157.73 55.6157 157.473 55.7514 157.181 55.8419C156.892 55.9297 156.59 55.9749 156.276 55.9749C155.795 55.9749 155.396 55.9057 155.08 55.7647C154.767 55.6237 154.518 55.4507 154.338 55.2432C154.156 55.0356 154.031 54.8121 153.958 54.57C153.886 54.3305 153.848 54.107 153.848 53.8968C153.848 53.6254 153.886 53.3487 153.958 53.0693C154.031 52.7899 154.143 52.5212 154.296 52.2658C154.151 52.178 154.014 52.1008 153.891 52.0369C153.766 51.9731 153.632 51.8959 153.487 51.8081C153.27 52.1114 153.11 52.4467 153.011 52.8112C152.909 53.1758 152.861 53.5376 152.861 53.8968C152.861 54.256 152.914 54.6046 153.019 54.9665C153.123 55.3257 153.305 55.653 153.562 55.9483C153.819 56.2436 154.164 56.4805 154.595 56.6614C155.026 56.8423 155.567 56.9328 156.22 56.9328C156.718 56.9328 157.179 56.8583 157.596 56.7066C158.014 56.555 158.375 56.3341 158.678 56.0467C158.98 55.7594 159.216 55.4055 159.384 54.9878C159.553 54.57 159.639 54.0911 159.639 53.5562C159.719 53.7132 159.813 53.841 159.917 53.9367C160.021 54.0325 160.137 54.1017 160.262 54.1496C160.388 54.1975 160.517 54.2268 160.656 54.2374C160.792 54.2481 160.934 54.256 161.079 54.256H161.526C161.783 54.256 162.034 54.1709 162.281 54.0033C162.527 53.8356 162.706 53.5829 162.819 53.2476C163.044 53.6148 163.314 53.8862 163.627 54.0591C163.94 54.2321 164.329 54.3172 164.786 54.3172C164.979 54.3172 165.166 54.3039 165.348 54.28C165.53 54.256 165.707 54.2028 165.881 54.123C166.055 54.0432 166.224 53.9261 166.387 53.7744C166.553 53.6228 166.716 53.4179 166.877 53.1624C166.933 53.378 167.019 53.5562 167.131 53.6973C167.244 53.8383 167.375 53.95 167.525 54.0325C167.675 54.1177 167.833 54.1735 168.001 54.2055C168.17 54.2374 168.339 54.2534 168.507 54.2534H171.829C171.99 54.2534 172.15 54.2108 172.306 54.123C172.461 54.0352 172.63 53.8436 172.806 53.5456C172.999 53.7984 173.224 53.9793 173.475 54.0884C173.73 54.1975 174.024 54.2534 174.364 54.2534H177.202V49.6928H176.235V53.2928L176.23 53.2902ZM166.194 52.4307C166.138 52.6117 166.052 52.7686 165.935 52.9043C165.817 53.04 165.67 53.1491 165.488 53.229C165.306 53.3088 165.091 53.3487 164.842 53.3487C164.594 53.3487 164.377 53.3088 164.197 53.229C164.015 53.1491 163.865 53.04 163.745 52.9043C163.625 52.7686 163.536 52.6117 163.48 52.4307C163.424 52.2498 163.394 52.0556 163.394 51.848C163.394 51.5846 163.432 51.3478 163.509 51.1402C163.587 50.9327 163.691 50.7544 163.823 50.6054C163.956 50.4564 164.112 50.3447 164.288 50.2622C164.465 50.1824 164.65 50.1424 164.845 50.1424C165.041 50.1424 165.209 50.1824 165.383 50.2622C165.557 50.342 165.71 50.4564 165.841 50.6054C165.975 50.7544 166.079 50.9327 166.162 51.1402C166.243 51.3478 166.283 51.5846 166.283 51.848C166.283 52.0556 166.253 52.2498 166.197 52.4307H166.194Z" fill="white"/>
<path d="M4.79905 18.3619C4.99447 18.2156 5.09351 18.0479 5.09351 17.8617V15.9433H2.95468C2.67628 15.9433 2.43 16.0337 2.21853 16.212C2.02312 16.3743 1.92407 16.5366 1.92407 16.7016V18.5934H4.04953C4.34398 18.5934 4.59293 18.5162 4.79905 18.3619Z" fill="white"/>
<path d="M8.89204 18.3619C9.08745 18.2156 9.1865 18.0479 9.1865 17.8617V15.9433H7.03695C6.75855 15.9433 6.51228 16.0337 6.30081 16.212C6.10539 16.3743 6.00635 16.5366 6.00635 16.7016V18.5934H8.1318C8.42626 18.5934 8.68056 18.5162 8.89472 18.3619H8.89204Z" fill="white"/>
<path d="M24.924 25.0671C24.924 23.3004 24.2842 21.9806 23.0073 21.1105C21.9098 20.3522 20.4241 19.9744 18.5476 19.9744C16.3927 19.9744 14.8 20.3442 13.7694 21.0866C13.1055 21.5602 12.7736 22.1376 12.7736 22.8214C12.7736 23.4068 13.0198 24.072 13.5097 24.8117C14.1816 23.2578 15.86 22.4782 18.5476 22.4782C20.5205 22.4782 21.5083 23.4334 21.5083 25.3492V28.4756H11.7537C10.8034 28.4756 10.2867 28.0765 10.2064 27.2782V20.1207C9.59341 20.4373 8.92419 20.597 8.20411 20.597C7.78651 20.597 7.20027 20.5278 6.44806 20.3894C5.70389 20.2511 5.14174 20.1819 4.7643 20.1819C3.47939 20.1819 2.44343 20.5225 1.65643 21.209C0.885481 21.8768 0.502686 22.7602 0.502686 23.8591V27.4006C0.502686 28.5075 0.933665 29.4042 1.79295 30.088C2.61208 30.7319 3.62394 31.0539 4.82854 31.0539C5.62358 31.0539 6.3517 30.8517 7.01557 30.4446C7.35018 30.2317 7.64999 30.0215 7.91232 29.8087C8.04349 29.9151 8.18537 30.0162 8.3433 30.1146C9.11693 30.5883 10.1422 30.8251 11.4137 30.8331L11.4753 30.8357H24.6215C25.3924 30.8357 25.9332 30.4366 26.2437 29.6384C26.3909 29.2392 26.4659 28.8534 26.4659 28.4783H24.9293V25.0698L24.924 25.0671ZM6.86298 27.3022C6.86298 27.7173 6.67828 28.0632 6.30887 28.3399C5.95552 28.6086 5.54595 28.7417 5.08017 28.7417C4.24498 28.7417 3.82739 28.1962 3.82739 27.1053V24.1491C3.82739 23.5797 3.9532 23.1593 4.2075 22.8906C4.4859 22.5979 4.949 22.4516 5.59681 22.4516C6.05456 22.4516 6.47751 22.4968 6.86298 22.5846V27.2995V27.3022Z" fill="white"/>
<path d="M35.0989 32.4056C34.9035 32.5679 34.8044 32.7302 34.8044 32.8952V34.787H36.9299C37.2244 34.787 37.4733 34.7098 37.6794 34.5555C37.8748 34.4092 37.9739 34.2415 37.9739 34.0553V32.1368H35.835C35.5567 32.1368 35.3104 32.2273 35.0989 32.4056Z" fill="white"/>
<path d="M39.1785 32.4056C38.9831 32.5679 38.884 32.7302 38.884 32.8952V34.787H41.0095C41.3039 34.787 41.5582 34.7098 41.7724 34.5555C41.9678 34.4092 42.0669 34.2415 42.0669 34.0553V32.1368H39.9173C39.6389 32.1368 39.3926 32.2273 39.1812 32.4056H39.1785Z" fill="white"/>
<path d="M73.8254 17.8005V28.4729H69.7083C69.3068 28.4729 68.9588 28.3665 68.6643 28.1563C68.3458 27.9275 68.1852 27.6321 68.1852 27.2649V16.2732C67.6284 16.2892 67.0716 16.3637 66.5148 16.494C65.4012 16.7628 64.8444 17.1991 64.8444 17.8005V27.0334C64.8444 27.986 64.3412 28.465 63.332 28.4756H62.6199V28.4383H62.1782C61.5813 28.4383 61.0754 28.4144 60.6658 28.3638C60.7889 27.9807 60.8505 27.5656 60.8505 27.1186V20.0489C60.2937 20.0568 59.7369 20.126 59.1801 20.2564C58.0665 20.5172 57.5097 20.9562 57.5097 21.5762V26.7674C57.5097 27.9248 57.0065 28.5022 55.9973 28.5022C55.5958 28.5022 55.2478 28.3958 54.9533 28.1856C54.6348 27.9567 54.4741 27.6614 54.4741 27.2942V20.0515C53.9174 20.0675 53.3606 20.142 52.8038 20.2724C51.6902 20.5411 51.1334 20.9775 51.1334 21.5788V27.0388C51.1334 27.9913 50.6301 28.4676 49.6209 28.4676C49.1632 28.4676 48.6546 28.4144 48.0978 28.308V20.0515C47.541 20.0515 46.9842 20.118 46.4274 20.2458C45.3138 20.4985 44.757 20.9429 44.757 21.5762V28.4756H41.882C41.4805 28.4756 41.1325 28.3692 40.8381 28.159C40.5195 27.9301 40.3589 27.6348 40.3589 27.2676V20.0489C39.8021 20.0648 39.2453 20.1393 38.6885 20.2697C37.5749 20.5384 37.0181 20.9748 37.0181 21.5762V27.0361C37.0181 27.9887 36.5149 28.4676 35.5057 28.4783H34.4242L33.2946 28.465C32.8288 28.465 32.3148 28.4117 31.758 28.3053V16.2892C31.2012 16.2892 30.6444 16.3504 30.0877 16.4727C28.9821 16.7255 28.428 17.1699 28.428 17.8031V30.8943C28.9446 30.5856 29.7102 30.4313 30.7248 30.4313C31.0272 30.4313 31.4903 30.5005 32.1141 30.6388C32.7351 30.7692 33.2196 30.8331 33.5649 30.8331H35.5191V30.8198H35.7894C37.0743 30.8198 38.1371 30.551 38.9723 30.0135C39.7753 30.559 40.913 30.8331 42.388 30.8331H44.4519C44.5509 30.8331 44.6473 30.8251 44.7463 30.8091C44.9337 30.7772 45.2014 30.7053 45.544 30.5962C45.8893 30.4872 46.3953 30.4313 47.0672 30.4313C47.3697 30.4313 47.8328 30.5005 48.4565 30.6388C49.0775 30.7692 49.562 30.8331 49.9074 30.8331C51.1923 30.8331 52.255 30.559 53.0902 30.0135C53.8933 30.559 55.0309 30.8331 56.5059 30.8331C57.7748 30.8331 58.8027 30.5164 59.5897 29.8805C59.6646 29.8246 59.7316 29.7661 59.7985 29.7102C59.8226 29.8007 59.8547 29.8858 59.8975 29.9656C60.1759 30.543 60.7006 30.8331 61.4715 30.8331H63.3507V30.8198H63.6211C64.906 30.8198 65.9687 30.551 66.8039 30.0135C67.607 30.559 68.7447 30.8331 70.2196 30.8331H74.6927C75.1183 30.8331 75.544 30.7665 75.9696 30.6388C76.8208 30.386 77.2465 29.9417 77.2465 29.3084V16.2892C76.6816 16.2892 76.1115 16.3504 75.5386 16.4727C74.4009 16.7255 73.8308 17.1699 73.8308 17.8031L73.8254 17.8005Z" fill="white"/>
<path d="M124.764 20.9402C123.881 20.2803 122.572 19.9504 120.845 19.9504C119.118 19.9504 117.839 20.2803 116.964 20.9402C116.12 21.5762 115.697 22.4835 115.697 23.6622V27.1558C115.697 27.6348 115.767 28.0712 115.906 28.4623L115.673 28.4756H114.051V28.4383H113.609C113.02 28.4383 112.504 28.4091 112.062 28.3532C112.185 27.978 112.247 27.5683 112.247 27.1186V25.0671C112.247 23.3243 111.511 22.0072 110.036 21.1105C108.799 20.3522 107.214 19.9744 105.282 19.9744C103.186 19.9584 101.654 20.1367 100.693 20.5065C99.7297 20.8764 98.9588 21.4165 98.3779 22.1243V20.0489C97.8211 20.0489 97.2643 20.1154 96.7075 20.2431C95.5939 20.4959 95.0371 20.9402 95.0371 21.5735V28.4357H93.0455V28.4596H92.9598C92.5021 28.4596 91.9935 28.4064 91.4367 28.3V21.5708C91.4367 20.9349 90.8826 20.4932 89.777 20.2404C89.2202 20.1101 88.6661 20.0462 88.1173 20.0462V31.7085C88.1173 32.9058 87.4535 33.6508 86.1257 33.9435C85.7162 34.034 85.312 34.0766 84.9104 34.0766C84.2546 34.0766 83.6175 33.9542 82.9938 33.7094C83.5024 34.5954 84.2439 35.2101 85.2183 35.5533C85.7429 35.7396 86.2863 35.8354 86.8512 35.8354C87.2286 35.8354 87.6141 35.7954 88.0049 35.713C88.9713 35.5081 89.7743 35.1116 90.4141 34.5156C91.0941 33.8877 91.434 33.1613 91.434 32.3284V30.5563C91.5491 30.5723 91.6669 30.5962 91.79 30.6282C92.304 30.7373 92.7189 30.7958 93.0428 30.8144V30.8224H107.897C109.166 30.8224 110.194 30.5058 110.981 29.8699C111.072 29.806 111.152 29.7315 111.227 29.649C111.259 29.7794 111.291 29.8805 111.326 29.955C111.604 30.5324 112.129 30.8224 112.897 30.8224H115.368C115.467 30.8224 115.564 30.8144 115.663 30.7985C115.85 30.7665 116.118 30.6947 116.46 30.5856C116.803 30.4765 117.1 30.4047 117.344 30.3727C117.427 30.3648 117.512 30.3594 117.601 30.3594C117.748 30.3594 117.895 30.3754 118.042 30.4073C118.805 30.6841 119.737 30.8224 120.845 30.8224C124.301 30.8224 126.03 29.5851 126.03 27.1106V23.6542C126.03 22.4728 125.607 21.5655 124.764 20.9322V20.9402ZM108.901 26.7647C108.901 27.9221 108.397 28.4995 107.388 28.4995C106.888 28.4995 105.836 28.4916 104.23 28.4756C102.623 28.4676 101.178 28.4623 99.893 28.4623C99.4352 28.4623 98.9266 28.4091 98.3698 28.3026V26.0303C98.4448 23.7101 100.744 22.5261 105.274 22.4755C106.288 22.4755 107.113 22.6777 107.744 23.0848C108.515 23.5824 108.898 24.3354 108.898 25.3438V26.7594L108.901 26.7647ZM122.687 26.8259C122.687 27.4113 122.572 27.8317 122.344 28.0845C122.066 28.3771 121.565 28.5235 120.845 28.5235C120.125 28.5235 119.654 28.3771 119.383 28.0845C119.153 27.8317 119.038 27.4139 119.038 26.8259V23.9549C119.038 23.3695 119.153 22.9544 119.383 22.7097C119.654 22.4249 120.141 22.2813 120.845 22.2813C121.549 22.2813 122.066 22.4249 122.344 22.7097C122.574 22.9544 122.687 23.3695 122.687 23.9549V26.8259Z" fill="white"/>
<path d="M161.59 32.4056C161.395 32.5679 161.296 32.7302 161.296 32.8952V34.787H163.421C163.716 34.787 163.965 34.7098 164.171 34.5555C164.366 34.4092 164.465 34.2415 164.465 34.0553V32.1368H162.326C162.048 32.1368 161.802 32.2273 161.59 32.4056Z" fill="white"/>
<path d="M165.67 32.4056C165.474 32.5679 165.375 32.7302 165.375 32.8952V34.787H167.501C167.795 34.787 168.049 34.7098 168.263 34.5555C168.459 34.4092 168.558 34.2415 168.558 34.0553V32.1368H166.408C166.13 32.1368 165.884 32.2273 165.672 32.4056H165.67Z" fill="white"/>
<path d="M176.789 18.3619C176.985 18.2156 177.084 18.0479 177.084 17.8617V15.9433H174.945C174.667 15.9433 174.418 16.0337 174.195 16.212C174.008 16.3663 173.912 16.526 173.912 16.6883V18.5934H176.024C176.326 18.5934 176.581 18.5162 176.787 18.3619H176.789Z" fill="white"/>
<path d="M175.585 20.267C174.471 20.5358 173.914 20.9722 173.914 21.5735V27.0334C173.914 27.994 173.398 28.4756 172.367 28.4756H168.373C167.972 28.4756 167.624 28.3692 167.329 28.159C167.011 27.9301 166.85 27.6348 166.85 27.2676V20.0489C166.293 20.0648 165.737 20.1393 165.18 20.2697C164.066 20.5384 163.509 20.9748 163.509 21.5762V27.0361C163.509 27.9887 163.006 28.4676 161.997 28.4783H149.41V28.465H148.586C148.16 28.465 147.657 28.4117 147.073 28.3053V16.2759C146.516 16.2838 145.962 16.353 145.414 16.4834C144.3 16.7442 143.743 17.1805 143.743 17.7898V30.6628C143.743 31.6233 143.559 32.3045 143.189 32.7009C142.755 33.1905 141.96 33.4327 140.807 33.4327C138.783 33.4327 137.522 32.5094 137.022 30.6601C136.874 30.1146 136.799 29.5612 136.799 28.9998C136.799 27.8104 137.126 26.5784 137.782 25.2986C136.561 25.6897 135.656 26.4667 135.067 27.6321C134.674 28.4064 134.479 29.2233 134.479 30.088C134.479 30.4393 134.511 30.8011 134.578 31.1736C134.824 32.4934 135.442 33.571 136.433 34.4092C137.554 35.3538 138.992 35.8247 140.745 35.8247C142.857 35.8247 144.453 35.3883 145.523 34.5183C146.557 33.6881 147.071 32.4881 147.071 30.9155V30.5617C147.21 30.5856 147.325 30.6096 147.413 30.6335C147.927 30.7399 148.342 30.8011 148.666 30.8198V30.8277H162.002V30.8144H162.273C163.558 30.8144 164.62 30.5457 165.456 30.0082C166.259 30.5537 167.396 30.8277 168.871 30.8277H172.643C173.947 30.8277 174.991 30.5883 175.775 30.1067C176.749 29.5133 177.237 28.5873 177.237 27.3341V20.0435C176.688 20.0595 176.134 20.134 175.577 20.2644L175.585 20.267Z" fill="white"/>
</g>
<defs>
<linearGradient id="paint0_linear_1_457" x1="223.978" y1="59.8756" x2="223.978" y2="0.688914" gradientUnits="userSpaceOnUse">
<stop stop-color="#AA7839"/>
<stop offset="0.5" stop-color="#CB9A4E"/>
<stop offset="1" stop-color="#F1C066"/>
</linearGradient>
<clipPath id="clip0_1_457">
<rect width="252" height="58" fill="white" transform="translate(0.5 0.5)"/>
</clipPath>
</defs>
</svg>
